<?xml version="1.0" encoding="UTF-8" standalone="no"?>
<!DOCTYPE svg PUBLIC "-//W3C//DTD SVG 1.1//EN" "http://www.w3.org/Graphics/SVG/1.1/DTD/svg11.dtd">
<svg version="1.1" xmlns="http://www.w3.org/2000/svg" xmlns:xlink="http://www.w3.org/1999/xlink" preserveAspectRatio="xMidYMid meet" viewBox="-1.0000000000000568 45.014654163484245 348.00000000000006 255.97069167303152" width="344" height="251.97"><defs><path d="M344 46.01C344 46.01 344 46.01 344 46.01C344 63.71 344 73.54 344 75.51C344 75.51 344 75.51 344 75.51C137.6 75.51 22.93 75.51 0 75.51C0 75.51 0 75.51 0 75.51C0 57.81 0 47.98 0 46.01C0 46.01 0 46.01 0 46.01C206.4 46.01 321.07 46.01 344 46.01Z" id="d1gr89gJVc"></path><path d="M344 156.35C344 156.35 344 156.35 344 156.35C344 174.05 344 183.88 344 185.84C344 185.84 344 185.84 344 185.84C137.6 185.84 22.93 185.84 0 185.84C0 185.84 0 185.84 0 185.84C0 168.15 0 158.32 0 156.35C0 156.35 0 156.35 0 156.35C206.4 156.35 321.07 156.35 344 156.35Z" id="b9yc60o4Y8"></path><path d="M344 268.48C344 268.48 344 268.48 344 268.48C344 286.18 344 296.02 344 297.99C344 297.99 344 297.99 344 297.99C137.6 297.99 22.93 297.99 0 297.99C0 297.99 0 297.99 0 297.99C0 280.28 0 270.45 0 268.48C0 268.48 0 268.48 0 268.48C206.4 268.48 321.07 268.48 344 268.48Z" id="a44UnD8hw"></path></defs><g><g><use xlink:href="#d1gr89gJVc" opacity="1" fill="#ffffff" fill-opacity="1"></use><g><use xlink:href="#d1gr89gJVc" opacity="1" fill-opacity="0" stroke="#000000" stroke-width="1" stroke-opacity="0"></use></g></g><g><use xlink:href="#b9yc60o4Y8" opacity="1" fill="#ffffff" fill-opacity="1"></use><g><use xlink:href="#b9yc60o4Y8" opacity="1" fill-opacity="0" stroke="#000000" stroke-width="1" stroke-opacity="0"></use></g></g><g><use xlink:href="#a44UnD8hw" opacity="1" fill="#ffffff" fill-opacity="1"></use><g><use xlink:href="#a44UnD8hw" opacity="1" fill-opacity="0" stroke="#000000" stroke-width="1" stroke-opacity="0"></use></g></g></g></svg>