<?xml version="1.0" encoding="UTF-8" standalone="no"?>
<!DOCTYPE svg PUBLIC "-//W3C//DTD SVG 1.1//EN" "http://www.w3.org/Graphics/SVG/1.1/DTD/svg11.dtd">
<svg version="1.1" xmlns="http://www.w3.org/2000/svg" xmlns:xlink="http://www.w3.org/1999/xlink" preserveAspectRatio="xMidYMid meet" viewBox="92.8367895656119 29.58827535986363 455.21028235030144 454.12596709561035" width="46" height="45.89"><defs><path d="M235.69 217.8C235.79 219.65 235.99 221.59 236.2 223.44C236.3 223.95 237.12 228.35 236.4 224.87C235.69 221.59 236.51 225.59 236.61 226.3C237.84 234.09 239.78 241.66 242.14 249.14C243.26 252.62 244.6 256 245.93 259.38C247.36 262.96 245.42 258.46 245.42 258.25C245.31 258.56 246.34 260.3 246.54 260.71C247.46 262.76 248.49 264.81 249.51 266.85C252.99 273.61 256.99 280.17 261.39 286.41C262.31 287.64 263.34 289.79 264.56 290.71C264.26 290.51 261.49 286.92 263.85 289.69C264.46 290.41 264.97 291.12 265.59 291.74C268.05 294.6 270.61 297.47 273.17 300.24C275.83 303 278.59 305.56 281.36 308.12C282.69 309.35 284.02 310.48 285.45 311.6C286.17 312.22 286.89 312.73 287.5 313.34C290.37 315.7 285.04 311.6 287.09 313.04C293.13 317.44 299.18 321.54 305.73 325.12C309.11 326.96 312.49 328.7 315.97 330.34C316.79 330.75 317.61 331.06 318.43 331.47C320.88 332.7 314.74 330.04 317.3 330.96C319.25 331.67 321.09 332.49 323.03 333.21C330.41 335.87 337.88 338.02 345.56 339.56C347.41 339.97 349.25 340.28 351.09 340.58C351.19 340.58 353.55 341.2 353.86 340.99C352.63 341.61 349.76 340.48 352.63 340.79C356.83 341.3 361.13 341.61 365.43 341.81C373.52 342.12 381.61 341.71 389.7 340.79C392.56 340.48 389.7 341.61 388.47 340.99C388.78 341.2 391.13 340.58 391.23 340.58C393.08 340.28 394.92 339.97 396.76 339.56C400.86 338.74 404.85 337.72 408.85 336.59C412.33 335.56 415.81 334.44 419.29 333.21C421.03 332.6 422.67 331.88 424.41 331.26C426.97 330.24 424.51 331.98 423.28 331.78C424 331.88 425.74 330.65 426.36 330.34C433.32 327.17 439.98 323.38 446.43 319.18C449.4 317.24 452.26 315.08 455.23 312.93C457.49 311.3 452.26 315.49 454.31 313.65C455.03 313.04 455.74 312.52 456.36 311.91C458.1 310.48 459.74 309.04 461.48 307.51C466.91 302.59 472.13 297.27 476.84 291.53C477.45 290.82 477.97 290.1 478.58 289.48C480.94 286.72 478.17 290.3 477.86 290.51C479.09 289.59 480.12 287.44 481.04 286.21C483.39 282.93 485.65 279.55 487.69 276.07C489.54 273 491.28 269.82 492.92 266.65C493.74 265.01 494.55 263.37 495.27 261.73C495.68 260.92 495.99 260.1 496.4 259.28C498.45 254.98 494.76 263.58 496.5 259.17C499.37 251.9 501.82 244.53 503.57 236.95C504.38 233.37 505.2 229.68 505.72 226C505.82 225.08 505.92 224.05 506.13 223.23C506.02 223.74 505.51 228.15 505.92 224.46C506.13 222.11 506.43 219.75 506.64 217.4C507.25 209.51 507.15 201.63 506.54 193.74C506.33 191.59 506.13 189.54 505.92 187.39C505.61 184.52 506.64 187.49 506.13 188.62C506.33 188.31 505.72 185.96 505.72 185.86C505.1 181.96 504.28 178.07 503.36 174.28C501.52 166.71 498.96 159.44 496.19 152.06C495.17 149.5 497.83 155.65 496.7 153.19C496.3 152.37 495.99 151.55 495.58 150.73C494.86 149.09 494.04 147.46 493.22 145.82C491.48 142.44 489.64 139.06 487.69 135.78C485.75 132.51 483.6 129.33 481.45 126.16C480.42 124.72 479.3 123.29 478.27 121.86C476.63 119.6 480.83 124.83 478.99 122.78C478.27 121.96 477.56 121.04 476.84 120.22C471.92 114.38 466.7 108.95 460.97 103.83C459.64 102.6 458.3 101.48 456.87 100.35C456.15 99.74 455.44 99.23 454.82 98.61C452.06 96.26 455.64 99.02 455.85 99.33C453.8 96.56 448.88 94.21 445.91 92.36C439.46 88.17 432.81 84.48 425.74 81.31C425.33 81.1 423.59 80.08 423.28 80.18C423.49 80.18 427.99 82.02 424.41 80.69C422.67 80.08 421.03 79.36 419.29 78.75C415.6 77.41 411.92 76.19 408.23 75.16C404.44 74.14 400.65 73.22 396.76 72.4C394.92 71.99 393.08 71.68 391.23 71.37C390.31 71.27 389.29 71.17 388.47 70.96C390.52 71.58 392.15 71.37 388.98 71.07C380.89 70.14 372.8 69.84 364.71 70.14C360.92 70.35 357.13 70.55 353.34 71.07C348.02 71.68 357.03 70.45 351.81 71.27C349.76 71.58 347.71 71.99 345.66 72.4C337.98 73.93 330.41 76.08 323.14 78.75C321.4 79.36 319.76 80.08 318.02 80.69C314.43 82.12 318.94 80.18 319.14 80.18C318.84 80.08 317.1 81.1 316.69 81.31C313 82.94 309.31 84.79 305.83 86.84C302.66 88.58 299.58 90.42 296.62 92.36C293.75 94.21 288.83 96.56 286.68 99.33C286.89 99.02 290.47 96.26 287.71 98.61C286.99 99.23 286.27 99.74 285.66 100.35C284.33 101.48 282.89 102.71 281.56 103.83C278.59 106.5 275.62 109.36 272.86 112.23C270.4 114.79 268.05 117.45 265.69 120.22C265.08 120.93 264.56 121.65 263.95 122.27C262.82 123.6 261.8 123.49 264.67 121.24C263.13 122.47 261.8 125.03 260.67 126.67C256.37 132.71 252.58 139.16 249.2 145.72C248.38 147.35 247.57 148.99 246.85 150.63C246.44 151.45 246.13 152.27 245.72 153.09C244.49 155.55 247.16 149.4 246.23 151.96C244.8 155.85 243.26 159.64 242.04 163.53C239.68 170.8 237.94 178.28 236.71 185.75C236.71 185.86 236.1 188.21 236.3 188.52C235.38 186.57 236.81 184.63 236.4 188.01C236.2 189.85 235.99 191.8 235.89 193.64C235.48 198.25 235.28 202.34 235.28 206.34C235.28 217.09 225.86 227.33 214.8 226.82C203.74 226.3 194.22 217.8 194.32 206.34C194.52 170.39 205.38 134.14 226.37 104.86C247.87 74.96 276.95 52.63 311.46 39.94C379.46 14.75 460.46 36.76 506.54 92.77C530.29 121.65 544.42 156.16 547.5 193.54C550.46 229.58 541.35 266.96 522.61 297.78C504.59 327.48 477.56 352.36 445.81 366.69C410.79 382.57 372.49 387.07 334.71 379.49C265.18 365.47 207.73 306.28 196.88 236.03C195.34 226.2 194.32 216.37 194.32 206.44C194.32 195.69 203.74 185.45 214.8 185.96C225.96 186.37 235.28 194.87 235.28 206.34C235.28 210.12 235.38 214.02 235.69 217.8Z" id="afdQzNRTT"></path><path d="M224.42 381.03C198.21 407.24 171.89 433.56 145.68 459.78C139.64 465.82 133.7 471.76 127.66 477.8C120.08 485.38 106.15 485.99 98.68 477.8C91.2 469.61 90.59 456.91 98.68 448.82C115.06 432.44 131.44 416.05 147.83 399.67C174.04 373.45 200.36 347.14 226.57 320.92C232.62 314.88 238.55 308.94 244.6 302.9C252.17 295.32 266.1 294.71 273.58 302.9C281.05 311.09 281.66 323.79 273.58 331.88C273.58 331.88 273.58 331.88 273.58 331.88C251.73 353.72 235.35 370.11 224.42 381.03Z" id="bmG2mSw1P"></path></defs><g><g><g><use xlink:href="#afdQzNRTT" opacity="1" fill="#ffffff" fill-opacity="1"></use><g><use xlink:href="#afdQzNRTT" opacity="1" fill-opacity="0" stroke="#000000" stroke-width="1" stroke-opacity="0"></use></g></g><g><use xlink:href="#bmG2mSw1P" opacity="1" fill="#ffffff" fill-opacity="1"></use><g><use xlink:href="#bmG2mSw1P" opacity="1" fill-opacity="0" stroke="#000000" stroke-width="1" stroke-opacity="0"></use></g></g></g></g></svg>