<?xml version="1.0" encoding="UTF-8" standalone="no"?>
<!DOCTYPE svg PUBLIC "-//W3C//DTD SVG 1.1//EN" "http://www.w3.org/Graphics/SVG/1.1/DTD/svg11.dtd">
<svg version="1.1" xmlns="http://www.w3.org/2000/svg" xmlns:xlink="http://www.w3.org/1999/xlink" preserveAspectRatio="xMidYMid meet" viewBox="-0.5535030368086287 -0.9996968937808548 49.10741810107964 48.99986712936229" width="45.11" height="45"><defs><path d="M14.65 19.21C14.66 19.26 14.74 19.7 14.67 19.35C14.6 19.03 14.68 19.42 14.69 19.49C14.81 20.26 15.01 21.01 15.24 21.76C15.35 22.1 15.48 22.44 15.62 22.77C15.76 23.13 15.57 22.68 15.57 22.66C15.56 22.69 15.66 22.86 15.68 22.9C15.77 23.11 15.87 23.31 15.97 23.51C16.32 24.18 16.71 24.83 17.15 25.45C17.24 25.57 17.34 25.78 17.46 25.87C17.43 25.86 17.16 25.5 17.39 25.77C17.45 25.85 17.5 25.92 17.56 25.98C17.81 26.26 18.06 26.54 18.32 26.82C18.58 27.09 18.85 27.35 19.13 27.6C19.26 27.72 19.39 27.83 19.53 27.94C19.6 28.01 19.68 28.06 19.74 28.12C20.02 28.35 19.49 27.94 19.7 28.09C20.29 28.52 20.89 28.93 21.54 29.28C21.88 29.47 22.21 29.64 22.56 29.8C22.64 29.84 22.72 29.87 22.8 29.91C23.04 30.04 22.43 29.77 22.69 29.86C22.88 29.93 23.06 30.01 23.26 30.09C23.99 30.35 24.73 30.56 25.49 30.72C25.67 30.76 25.85 30.79 26.04 30.82C26.05 30.82 26.28 30.88 26.31 30.86C26.19 30.92 25.91 30.81 26.19 30.84C26.61 30.89 27.03 30.92 27.46 30.94C28.26 30.97 29.06 30.93 29.86 30.84C30.15 30.81 29.86 30.92 29.74 30.86C29.77 30.88 30 30.82 30.01 30.82C30.2 30.79 30.38 30.76 30.56 30.72C30.97 30.63 31.36 30.53 31.76 30.42C32.11 30.32 32.45 30.21 32.79 30.09C32.97 30.03 33.13 29.95 33.3 29.89C33.56 29.79 33.31 29.96 33.19 29.94C33.26 29.95 33.43 29.83 33.5 29.8C34.19 29.49 34.85 29.11 35.48 28.7C35.78 28.5 36.06 28.29 36.36 28.08C36.58 27.92 36.06 28.33 36.27 28.15C36.34 28.09 36.41 28.04 36.47 27.98C36.64 27.83 36.8 27.69 36.98 27.54C37.51 27.05 38.03 26.52 38.5 25.96C38.56 25.89 38.61 25.81 38.67 25.75C38.9 25.48 38.63 25.83 38.6 25.86C38.72 25.76 38.82 25.55 38.91 25.43C39.15 25.1 39.37 24.77 39.57 24.42C39.76 24.12 39.93 23.8 40.09 23.49C40.17 23.33 40.25 23.17 40.32 23C40.36 22.92 40.4 22.84 40.44 22.76C40.64 22.33 40.27 23.19 40.45 22.75C40.73 22.03 40.97 21.3 41.15 20.55C41.23 20.19 41.31 19.83 41.36 19.46C41.37 19.37 41.38 19.27 41.4 19.19C41.39 19.24 41.34 19.68 41.38 19.31C41.4 19.08 41.43 18.84 41.45 18.61C41.51 17.83 41.5 17.05 41.44 16.27C41.42 16.05 41.4 15.85 41.38 15.64C41.35 15.35 41.45 15.65 41.4 15.76C41.42 15.73 41.36 15.5 41.36 15.49C41.3 15.1 41.22 14.71 41.13 14.34C40.94 13.59 40.69 12.87 40.42 12.14C40.31 11.88 40.58 12.49 40.47 12.25C40.43 12.17 40.4 12.09 40.35 12C40.28 11.84 40.2 11.68 40.12 11.52C39.95 11.18 39.77 10.85 39.57 10.52C39.38 10.2 39.17 9.88 38.95 9.57C38.85 9.43 38.74 9.29 38.64 9.14C38.48 8.92 38.89 9.44 38.71 9.23C38.64 9.15 38.57 9.06 38.5 8.98C38.01 8.4 37.49 7.86 36.93 7.36C36.79 7.23 36.66 7.12 36.52 7.01C36.45 6.95 36.38 6.9 36.32 6.84C36.04 6.61 36.4 6.88 36.42 6.91C36.21 6.64 35.73 6.4 35.43 6.22C34.79 5.8 34.13 5.44 33.43 5.13C33.39 5.1 33.22 5 33.19 5.01C33.21 5.01 33.66 5.2 33.3 5.06C33.13 5 32.97 4.93 32.79 4.87C32.43 4.74 32.06 4.62 31.7 4.52C31.32 4.41 30.95 4.32 30.56 4.24C30.38 4.2 30.2 4.17 30.01 4.14C29.92 4.13 29.82 4.12 29.74 4.1C29.94 4.16 30.11 4.14 29.79 4.11C28.99 4.02 28.19 3.99 27.39 4.02C27.01 4.04 26.64 4.06 26.26 4.11C25.73 4.17 26.63 4.05 26.11 4.13C25.91 4.16 25.7 4.2 25.5 4.24C24.74 4.39 23.99 4.61 23.27 4.87C23.09 4.93 22.93 5 22.76 5.06C22.4 5.21 22.85 5.01 22.87 5.01C22.84 5 22.67 5.1 22.63 5.13C22.26 5.29 21.9 5.47 21.55 5.67C21.24 5.85 20.93 6.03 20.64 6.22C20.36 6.4 19.87 6.64 19.65 6.91C19.68 6.88 20.03 6.61 19.76 6.84C19.69 6.9 19.61 6.95 19.55 7.01C19.42 7.12 19.28 7.25 19.15 7.36C18.85 7.62 18.56 7.9 18.29 8.19C18.04 8.44 17.81 8.71 17.57 8.98C17.51 9.05 17.46 9.12 17.4 9.18C17.29 9.32 17.19 9.3 17.47 9.08C17.32 9.2 17.19 9.46 17.08 9.62C16.65 10.22 16.28 10.86 15.94 11.51C15.86 11.67 15.78 11.83 15.71 11.99C15.67 12.08 15.64 12.16 15.6 12.24C15.47 12.48 15.74 11.87 15.65 12.13C15.5 12.51 15.35 12.89 15.23 13.27C15 13.99 14.82 14.73 14.7 15.47C14.7 15.49 14.64 15.72 14.66 15.75C14.57 15.56 14.71 15.36 14.67 15.7C14.65 15.88 14.63 16.07 14.62 16.26C14.58 16.71 14.56 17.12 14.56 17.51C14.56 18.58 13.63 19.59 12.53 19.54C11.44 19.49 10.49 18.65 10.5 17.51C10.52 13.95 11.6 10.36 13.68 7.46C15.81 4.5 18.69 2.28 22.11 1.03C28.85 -1.47 36.87 0.71 41.44 6.26C43.79 9.12 45.19 12.54 45.5 16.25C45.79 19.82 44.89 23.52 43.03 26.58C41.25 29.52 38.57 31.98 35.42 33.4C31.95 34.98 28.16 35.42 24.41 34.67C17.52 33.28 11.83 27.42 10.76 20.46C10.6 19.48 10.5 18.51 10.5 17.52C10.5 16.46 11.44 15.44 12.53 15.5C13.64 15.54 14.56 16.38 14.56 17.51C14.56 17.89 14.57 18.28 14.6 18.65C14.61 18.83 14.63 19.03 14.65 19.21Z" id="a4XRggbqM"></path><path d="M14.65 19.21C14.66 19.26 14.74 19.7 14.67 19.35C14.6 19.03 14.68 19.42 14.69 19.49C14.81 20.26 15.01 21.01 15.24 21.76C15.35 22.1 15.48 22.44 15.62 22.77C15.76 23.13 15.57 22.68 15.57 22.66C15.56 22.69 15.66 22.86 15.68 22.9C15.77 23.11 15.87 23.31 15.97 23.51C16.32 24.18 16.71 24.83 17.15 25.45C17.24 25.57 17.34 25.78 17.46 25.87C17.43 25.86 17.16 25.5 17.39 25.77C17.45 25.85 17.5 25.92 17.56 25.98C17.81 26.26 18.06 26.54 18.32 26.82C18.58 27.09 18.85 27.35 19.13 27.6C19.26 27.72 19.39 27.83 19.53 27.94C19.6 28.01 19.68 28.06 19.74 28.12C20.02 28.35 19.49 27.94 19.7 28.09C20.29 28.52 20.89 28.93 21.54 29.28C21.88 29.47 22.21 29.64 22.56 29.8C22.64 29.84 22.72 29.87 22.8 29.91C23.04 30.04 22.43 29.77 22.69 29.86C22.88 29.93 23.06 30.01 23.26 30.09C23.99 30.35 24.73 30.56 25.49 30.72C25.67 30.76 25.85 30.79 26.04 30.82C26.05 30.82 26.28 30.88 26.31 30.86C26.19 30.92 25.91 30.81 26.19 30.84C26.61 30.89 27.03 30.92 27.46 30.94C28.26 30.97 29.06 30.93 29.86 30.84C30.15 30.81 29.86 30.92 29.74 30.86C29.77 30.88 30 30.82 30.01 30.82C30.2 30.79 30.38 30.76 30.56 30.72C30.97 30.63 31.36 30.53 31.76 30.42C32.11 30.32 32.45 30.21 32.79 30.09C32.97 30.03 33.13 29.95 33.3 29.89C33.56 29.79 33.31 29.96 33.19 29.94C33.26 29.95 33.43 29.83 33.5 29.8C34.19 29.49 34.85 29.11 35.48 28.7C35.78 28.5 36.06 28.29 36.36 28.08C36.58 27.92 36.06 28.33 36.27 28.15C36.34 28.09 36.41 28.04 36.47 27.98C36.64 27.83 36.8 27.69 36.98 27.54C37.51 27.05 38.03 26.52 38.5 25.96C38.56 25.89 38.61 25.81 38.67 25.75C38.9 25.48 38.63 25.83 38.6 25.86C38.72 25.76 38.82 25.55 38.91 25.43C39.15 25.1 39.37 24.77 39.57 24.42C39.76 24.12 39.93 23.8 40.09 23.49C40.17 23.33 40.25 23.17 40.32 23C40.36 22.92 40.4 22.84 40.44 22.76C40.64 22.33 40.27 23.19 40.45 22.75C40.73 22.03 40.97 21.3 41.15 20.55C41.23 20.19 41.31 19.83 41.36 19.46C41.37 19.37 41.38 19.27 41.4 19.19C41.39 19.24 41.34 19.68 41.38 19.31C41.4 19.08 41.43 18.84 41.45 18.61C41.51 17.83 41.5 17.05 41.44 16.27C41.42 16.05 41.4 15.85 41.38 15.64C41.35 15.35 41.45 15.65 41.4 15.76C41.42 15.73 41.36 15.5 41.36 15.49C41.3 15.1 41.22 14.71 41.13 14.34C40.94 13.59 40.69 12.87 40.42 12.14C40.31 11.88 40.58 12.49 40.47 12.25C40.43 12.17 40.4 12.09 40.35 12C40.28 11.84 40.2 11.68 40.12 11.52C39.95 11.18 39.77 10.85 39.57 10.52C39.38 10.2 39.17 9.88 38.95 9.57C38.85 9.43 38.74 9.29 38.64 9.14C38.48 8.92 38.89 9.44 38.71 9.23C38.64 9.15 38.57 9.06 38.5 8.98C38.01 8.4 37.49 7.86 36.93 7.36C36.79 7.23 36.66 7.12 36.52 7.01C36.45 6.95 36.38 6.9 36.32 6.84C36.04 6.61 36.4 6.88 36.42 6.91C36.21 6.64 35.73 6.4 35.43 6.22C34.79 5.8 34.13 5.44 33.43 5.13C33.39 5.1 33.22 5 33.19 5.01C33.21 5.01 33.66 5.2 33.3 5.06C33.13 5 32.97 4.93 32.79 4.87C32.43 4.74 32.06 4.62 31.7 4.52C31.32 4.41 30.95 4.32 30.56 4.24C30.38 4.2 30.2 4.17 30.01 4.14C29.92 4.13 29.82 4.12 29.74 4.1C29.94 4.16 30.11 4.14 29.79 4.11C28.99 4.02 28.19 3.99 27.39 4.02C27.01 4.04 26.64 4.06 26.26 4.11C25.73 4.17 26.63 4.05 26.11 4.13C25.91 4.16 25.7 4.2 25.5 4.24C24.74 4.39 23.99 4.61 23.27 4.87C23.09 4.93 22.93 5 22.76 5.06C22.4 5.21 22.85 5.01 22.87 5.01C22.84 5 22.67 5.1 22.63 5.13C22.26 5.29 21.9 5.47 21.55 5.67C21.24 5.85 20.93 6.03 20.64 6.22C20.36 6.4 19.87 6.64 19.65 6.91C19.68 6.88 20.03 6.61 19.76 6.84C19.69 6.9 19.61 6.95 19.55 7.01C19.42 7.12 19.28 7.25 19.15 7.36C18.85 7.62 18.56 7.9 18.29 8.19C18.04 8.44 17.81 8.71 17.57 8.98C17.51 9.05 17.46 9.12 17.4 9.18C17.29 9.32 17.19 9.3 17.47 9.08C17.32 9.2 17.19 9.46 17.08 9.62C16.65 10.22 16.28 10.86 15.94 11.51C15.86 11.67 15.78 11.83 15.71 11.99C15.67 12.08 15.64 12.16 15.6 12.24C15.47 12.48 15.74 11.87 15.65 12.13C15.5 12.51 15.35 12.89 15.23 13.27C15 13.99 14.82 14.73 14.7 15.47C14.7 15.49 14.64 15.72 14.66 15.75C14.57 15.56 14.71 15.36 14.67 15.7C14.65 15.88 14.63 16.07 14.62 16.26C14.58 16.71 14.56 17.12 14.56 17.51C14.56 18.58 13.63 19.59 12.53 19.54C11.44 19.49 10.49 18.65 10.5 17.51C10.52 13.95 11.6 10.36 13.68 7.46C15.81 4.5 18.69 2.28 22.11 1.03C28.85 -1.47 36.87 0.71 41.44 6.26C43.79 9.12 45.19 12.54 45.5 16.25C45.79 19.82 44.89 23.52 43.03 26.58C41.25 29.52 38.57 31.98 35.42 33.4C31.95 34.98 28.16 35.42 24.41 34.67C17.52 33.28 11.83 27.42 10.76 20.46C10.6 19.48 10.5 18.51 10.5 17.52C10.5 16.46 11.44 15.44 12.53 15.5C13.64 15.54 14.56 16.38 14.56 17.51C14.56 17.89 14.57 18.28 14.6 18.65C14.61 18.83 14.63 19.03 14.65 19.21Z" id="gzTv2H3Tk"></path><path d="M5.68 42.63C5.08 43.23 4.5 43.82 3.9 44.41C3.15 45.17 1.77 45.23 1.03 44.41C0.28 43.6 0.22 42.34 1.03 41.54C2.65 39.92 4.27 38.3 5.9 36.67C8.49 34.07 11.1 31.47 13.7 28.87C14.3 28.27 14.89 27.68 15.48 27.08C16.23 26.33 17.62 26.27 18.36 27.08C19.1 27.89 19.16 29.15 18.36 29.95C18.36 29.95 18.36 29.95 18.36 29.95C16.19 32.12 14.57 33.74 13.49 34.82C10.89 37.42 8.28 40.03 5.68 42.63Z" id="dtXeL3c9l"></path><path d="M5.68 42.63C5.08 43.23 4.5 43.82 3.9 44.41C3.15 45.17 1.77 45.23 1.03 44.41C0.28 43.6 0.22 42.34 1.03 41.54C2.65 39.92 4.27 38.3 5.9 36.67C8.49 34.07 11.1 31.47 13.7 28.87C14.3 28.27 14.89 27.68 15.48 27.08C16.23 26.33 17.62 26.27 18.36 27.08C19.1 27.89 19.16 29.15 18.36 29.95C18.36 29.95 18.36 29.95 18.36 29.95C16.19 32.12 14.57 33.74 13.49 34.82C10.89 37.42 8.28 40.03 5.68 42.63Z" id="b1miX5Ty2G"></path></defs><g><g><use xlink:href="#a4XRggbqM" opacity="1" fill="#000000" fill-opacity="1"></use><g><use xlink:href="#a4XRggbqM" opacity="1" fill-opacity="0" stroke="#000000" stroke-width="1" stroke-opacity="0"></use></g></g><g><use xlink:href="#gzTv2H3Tk" opacity="1" fill="#000000" fill-opacity="1"></use><g><use xlink:href="#gzTv2H3Tk" opacity="1" fill-opacity="0" stroke="#000000" stroke-width="1" stroke-opacity="0"></use></g></g><g><use xlink:href="#dtXeL3c9l" opacity="1" fill="#000000" fill-opacity="1"></use><g><use xlink:href="#dtXeL3c9l" opacity="1" fill-opacity="0" stroke="#000000" stroke-width="1" stroke-opacity="0"></use></g></g><g><use xlink:href="#b1miX5Ty2G" opacity="1" fill="#000000" fill-opacity="1"></use><g><use xlink:href="#b1miX5Ty2G" opacity="1" fill-opacity="0" stroke="#000000" stroke-width="1" stroke-opacity="0"></use></g></g></g></svg>